<?xml version="1.0" encoding="iso-8859-1"?>
<!-- Uploaded to: SVG Repo, www.svgrepo.com, Generator: SVG Repo Mixer Tools -->
<svg fill="#000000" height="800px" width="800px" version="1.1" id="Layer_1" xmlns="http://www.w3.org/2000/svg" xmlns:xlink="http://www.w3.org/1999/xlink" 
	 viewBox="0 0 512 512" xml:space="preserve">
<g>
	<g>
		<path d="M430.865,270.133c2.017-8.847,3.034-17.924,3.034-27.093c0-66.992-54.5-121.492-121.492-121.492
			c-54.157,0-101.941,36.445-116.758,87.814c-4.424-0.686-8.907-1.034-13.411-1.034c-45.055,0-82.203,34.517-86.385,78.496
			c-43.979,4.182-78.496,41.273-78.496,86.328c0,47.853,38.928,86.723,86.78,86.723h312.937c52.343,0,94.928-43.049,94.928-95.401
			C512,316.521,477.148,277.01,430.865,270.133z M417.026,442.52h-312.89c-38.28,0-69.424-31.087-69.424-69.368
			c0-38.279,31.144-69.395,69.424-69.395c4.792,0,8.678-3.871,8.678-8.663c0-38.28,31.144-69.417,69.424-69.417
			c5.97,0,11.894,0.763,17.61,2.254c2.305,0.602,4.737,0.23,6.754-1.008c2.017-1.246,3.436-3.266,3.932-5.584
			c10.119-47.767,52.966-82.436,101.873-82.436c57.419,0,104.136,46.717,104.136,104.136c0,10.971-1.695,21.771-5.038,32.098
			c-0.839,2.589-0.415,5.419,1.144,7.648c1.559,2.229,4.076,3.597,6.792,3.699c42.169,1.534,75.203,35.762,75.203,77.99
			C494.644,407.31,459.805,442.52,417.026,442.52z"/>
	</g>
</g>
<g>
	<g>
		<path d="M203.326,154.887c-11.364-30.322-40.763-50.695-73.157-50.695c-43.064,0-78.102,35.038-78.102,78.102
			c0,23.293,10.284,45.195,28.216,60.093c1.623,1.347,3.589,2.004,5.542,2.004c2.491,0,4.962-1.068,6.678-3.131
			c3.064-3.686,2.559-9.157-1.127-12.22c-13.954-11.593-21.954-28.631-21.954-46.746c0-33.496,27.25-60.746,60.746-60.746
			c25.199,0,48.068,15.847,56.903,39.432c1.678,4.487,6.695,6.746,11.174,5.081C202.733,164.379,205.008,159.379,203.326,154.887z"
			/>
	</g>
</g>
<g>
	<g>
		<path d="M66.882,98.057l-8.678-8.678c-3.39-3.39-8.881-3.39-12.271,0s-3.39,8.881,0,12.271l8.678,8.678
			c1.695,1.695,3.915,2.542,6.136,2.542c2.22,0,4.441-0.847,6.136-2.542C70.271,106.938,70.271,101.447,66.882,98.057z"/>
	</g>
</g>
<g>
	<g>
		<path d="M139.854,52.124c-4.792,0-8.678,3.886-8.678,8.678v17.356c0,4.792,3.886,8.678,8.678,8.678s8.678-3.886,8.678-8.678
			V60.802C148.532,56.01,144.646,52.124,139.854,52.124z"/>
	</g>
</g>
<g>
	<g>
		<path d="M231.763,98.057c-3.39-3.39-8.881-3.39-12.271,0l-8.678,8.678c-3.39,3.39-3.39,8.881,0,12.271
			c1.695,1.695,3.915,2.542,6.136,2.542c2.22,0,4.441-0.847,6.136-2.542l8.678-8.678
			C235.153,106.938,235.153,101.447,231.763,98.057z"/>
	</g>
</g>
<g>
	<g>
		<path d="M26.034,164.825H8.678c-4.792,0-8.678,3.886-8.678,8.678s3.886,8.678,8.678,8.678h17.356c4.792,0,8.678-3.886,8.678-8.678
			S30.826,164.825,26.034,164.825z"/>
	</g>
</g>
<g>
	<g>
		<path d="M58.204,245.582c-3.39-3.39-8.881-3.39-12.271,0l-8.678,8.678c-3.39,3.39-3.39,8.881,0,12.271
			c1.695,1.695,3.915,2.542,6.136,2.542c2.22,0,4.441-0.847,6.136-2.542l8.678-8.678C61.593,254.464,61.593,248.972,58.204,245.582z
			"/>
	</g>
</g>
</svg>