<?xml version="1.0" encoding="iso-8859-1"?>
<!-- Uploaded to: SVG Repo, www.svgrepo.com, Generator: SVG Repo Mixer Tools -->
<svg fill="#000000" height="800px" width="800px" version="1.1" id="Layer_1" xmlns="http://www.w3.org/2000/svg" xmlns:xlink="http://www.w3.org/1999/xlink" 
	 viewBox="0 0 479.876 479.876" xml:space="preserve">
<g transform="translate(0 -540.36)">
	<g>
		<g>
			<path d="M101.688,826.698c-2.6-4.8-8.7-6.7-13.5-4.1l-16.3,8.8v-22.5c0-5.5-4.5-10-10-10s-10,4.5-10,10v22.5l-16.3-8.8
				c-4.9-2.6-10.9-0.8-13.5,4.1c-2.6,4.9-0.8,10.9,4.1,13.5l14.7,7.9l-14.7,7.9c-4.9,2.6-6.7,8.7-4.1,13.5c1.8,3.4,5.3,5.3,8.8,5.3
				c1.6,0,3.2-0.4,4.7-1.2l16.3-8.8v22.5c0,5.5,4.5,10,10,10s10-4.5,10-10v-22.5l16.3,8.8c1.5,0.8,3.1,1.2,4.7,1.2
				c3.6,0,7-1.9,8.8-5.3c2.6-4.8,0.8-10.9-4.1-13.5l-14.7-7.9l14.7-7.9C102.488,837.598,104.288,831.498,101.688,826.698z"/>
			<path d="M171.488,810.798c-4.8-2.7-10.9-0.9-13.6,3.9l-31,56c-2.7,4.8-0.9,10.9,3.9,13.6c1.5,0.9,3.2,1.3,4.8,1.3
				c3.5,0,6.9-1.8,8.8-5.2l31-56C178.088,819.598,176.288,813.498,171.488,810.798z"/>
			<path d="M280.088,826.598c-2.6-4.9-8.6-6.7-13.5-4.1l-16.7,8.9v-22.7c0-5.5-4.5-10-10-10s-10,4.5-10,10v22.7l-16.7-8.9
				c-4.9-2.6-10.9-0.7-13.5,4.1c-2.6,4.8-0.7,10.9,4.1,13.5l14.8,7.9l-14.8,7.9c-4.9,2.6-6.7,8.6-4.1,13.5c1.8,3.4,5.3,5.3,8.8,5.3
				c1.6,0,3.2-0.4,4.7-1.2l16.7-8.9v22.7c0,5.5,4.5,10,10,10s10-4.5,10-10v-22.7l16.7,8.9c1.5,0.8,3.1,1.2,4.7,1.2
				c3.6,0,7-1.9,8.8-5.3c2.6-4.8,0.8-10.9-4.1-13.5l-14.8-7.9l14.8-7.9C280.888,837.498,282.688,831.498,280.088,826.598z"/>
			<path d="M313.188,885.598L313.188,885.598c3.5,0,6.9-1.8,8.8-5.2l31-56c2.7-4.8,0.9-10.9-3.9-13.6c-4.8-2.7-10.9-0.9-13.6,3.9
				l-31,56c-2.7,4.8-0.9,10.9,3.9,13.6C309.888,885.198,311.588,885.598,313.188,885.598z"/>
			<path d="M457.788,826.698c-2.6-4.8-8.7-6.7-13.5-4.1l-16.3,8.8v-22.5c0-5.5-4.5-10-10-10s-10,4.5-10,10v22.5l-16.3-8.8
				c-4.9-2.6-10.9-0.8-13.5,4.1c-2.6,4.9-0.8,10.9,4.1,13.5l14.7,7.9l-14.7,7.9c-4.9,2.6-6.7,8.7-4.1,13.5c1.8,3.4,5.3,5.3,8.8,5.3
				c1.6,0,3.2-0.4,4.7-1.2l16.3-8.8v22.5c0,5.5,4.5,10,10,10s10-4.5,10-10v-22.5l16.3,8.8c1.5,0.8,3.1,1.2,4.7,1.2
				c3.6,0,7-1.9,8.8-5.3c2.6-4.8,0.8-10.9-4.1-13.5l-14.7-7.9l14.7-7.9C458.588,837.598,460.388,831.498,457.788,826.698z"/>
			<path d="M87.688,923.798c-4.8-2.7-10.9-0.9-13.6,3.9l-31,56c-2.7,4.8-0.9,10.9,3.9,13.6c1.5,0.9,3.2,1.3,4.8,1.3
				c3.5,0,6.9-1.9,8.8-5.2l31-56C94.288,932.598,92.488,926.498,87.688,923.798z"/>
			<path d="M192.188,968.898l-14.8-7.9l14.8-7.9c4.9-2.6,6.7-8.6,4.1-13.5c-2.6-4.9-8.6-6.7-13.5-4.1l-16.7,8.9v-22.7
				c0-5.5-4.5-10-10-10s-10,4.5-10,10v22.7l-16.7-8.9c-4.9-2.6-10.9-0.7-13.5,4.1c-2.6,4.8-0.7,10.9,4.1,13.5l14.8,7.9l-14.8,7.9
				c-4.9,2.6-6.7,8.6-4.1,13.5c1.8,3.4,5.3,5.3,8.8,5.3c1.6,0,3.2-0.4,4.7-1.2l16.7-8.9v22.7c0,5.5,4.5,10,10,10s10-4.5,10-10v-22.7
				l16.7,8.9c1.5,0.8,3.1,1.2,4.7,1.2c3.6,0,7-1.9,8.8-5.3C198.988,977.498,197.088,971.498,192.188,968.898z"/>
			<path d="M265.288,923.798c-4.8-2.7-10.9-0.9-13.6,3.9l-31,56c-2.7,4.8-0.9,10.9,3.9,13.6c1.5,0.9,3.2,1.3,4.8,1.3
				c3.5,0,7-1.9,8.8-5.2l31-56C271.888,932.598,270.088,926.498,265.288,923.798z"/>
			<path d="M373.988,939.598c-2.6-4.9-8.7-6.7-13.5-4.1l-16.3,8.8v-22.5c0-5.5-4.5-10-10-10s-10,4.5-10,10v22.5l-16.3-8.8
				c-4.9-2.6-10.9-0.8-13.5,4.1c-2.6,4.9-0.8,10.9,4.1,13.5l14.7,7.9l-14.7,7.9c-4.9,2.6-6.7,8.7-4.1,13.5c1.8,3.4,5.3,5.3,8.8,5.3
				c1.6,0,3.2-0.4,4.7-1.2l16.3-8.8v22.5c0,5.5,4.5,10,10,10s10-4.5,10-10v-22.5l16.3,8.8c1.5,0.8,3.1,1.2,4.7,1.2
				c3.6,0,7-1.9,8.8-5.3c2.6-4.8,0.8-10.9-4.1-13.5l-14.7-7.9l14.7-7.9C374.788,950.498,376.588,944.398,373.988,939.598z"/>
			<path d="M443.788,923.798c-4.8-2.7-10.9-0.9-13.6,3.9l-31,56c-2.7,4.8-0.9,10.9,3.9,13.6c1.5,0.9,3.2,1.3,4.8,1.3h0
				c3.5,0,6.9-1.9,8.8-5.2l31-56C450.388,932.598,448.588,926.498,443.788,923.798z"/>
			<path d="M30.988,638.798c0,5.5,4.5,10,10,10s10-4.5,10-10v-22.5l16.3,8.8c1.5,0.8,3.1,1.2,4.7,1.2c3.6,0,7-1.9,8.8-5.3
				c2.5-4.8,0.7-10.9-4.1-13.5l-14.7-7.9l14.7-7.9c4.9-2.6,6.7-8.7,4.1-13.5c-2.6-4.8-8.7-6.7-13.5-4.1l-16.3,8.8v-22.6
				c0-5.5-4.5-10-10-10s-10,4.5-10,10v22.6l-16.3-8.8c-4.9-2.6-10.9-0.8-13.5,4.1c-2.6,4.9-0.8,10.9,4.1,13.5l14.7,7.9l-14.7,7.9
				c-4.9,2.6-6.7,8.7-4.1,13.5c1.8,3.4,5.3,5.3,8.8,5.3c1.6,0,3.2-0.4,4.7-1.2l16.3-8.8V638.798z"/>
			<path d="M119.888,635.898c1.5,0.9,3.2,1.3,4.8,1.3c3.5,0,6.9-1.9,8.8-5.2l31-56c2.7-4.8,0.9-10.9-3.9-13.6
				c-4.8-2.7-10.9-0.9-13.6,3.9l-31,56C113.288,627.098,115.088,633.198,119.888,635.898z"/>
			<path d="M280.088,578.198c-2.6-4.9-8.6-6.7-13.5-4.1l-16.7,8.9v-22.7c0-5.5-4.5-10-10-10s-10,4.5-10,10v22.7l-16.7-8.9
				c-4.9-2.6-10.9-0.7-13.5,4.1c-2.6,4.9-0.7,10.9,4.1,13.5l14.8,7.9l-14.8,7.9c-4.9,2.6-6.7,8.6-4.1,13.5c1.8,3.4,5.3,5.3,8.8,5.3
				c1.6,0,3.2-0.4,4.7-1.2l16.7-8.9v22.7c0,5.5,4.5,10,10,10s10-4.5,10-10v-22.7l16.7,8.9c1.5,0.8,3.1,1.2,4.7,1.2
				c3.6,0,7-1.9,8.8-5.3c2.6-4.9,0.8-10.9-4.1-13.5l-14.8-7.9l14.8-7.9C280.888,589.098,282.688,583.098,280.088,578.198z"/>
			<path d="M319.288,635.898c1.5,0.9,3.2,1.3,4.8,1.3c3.5,0,6.9-1.9,8.8-5.2l31-56c2.7-4.8,0.9-10.9-3.9-13.6
				c-4.8-2.7-10.9-0.9-13.6,3.9l-31,56C312.688,627.098,314.488,633.198,319.288,635.898z"/>
			<path d="M474.588,607.498l-14.7-7.9l14.7-7.9c4.9-2.6,6.7-8.7,4.1-13.5c-2.6-4.8-8.7-6.7-13.5-4.1l-16.3,8.8v-22.6
				c0-5.5-4.5-10-10-10s-10,4.5-10,10v22.6l-16.3-8.8c-4.9-2.6-10.9-0.8-13.5,4.1c-2.6,4.9-0.8,10.9,4.1,13.5l14.7,7.9l-14.7,7.9
				c-4.9,2.6-6.7,8.7-4.1,13.5c1.8,3.4,5.3,5.3,8.8,5.3c1.6,0,3.2-0.4,4.7-1.2l16.3-8.8v22.5c0,5.5,4.5,10,10,10s10-4.5,10-10v-22.5
				l16.3,8.8c1.5,0.8,3.1,1.2,4.7,1.2c3.6,0,7-1.9,8.8-5.3C481.288,616.198,479.488,610.098,474.588,607.498z"/>
			<path d="M25.988,760.498c1.5,0.9,3.2,1.3,4.8,1.3c3.6,0,7-1.8,8.8-5.2l31-56c2.7-4.8,0.9-10.9-3.9-13.6
				c-4.8-2.7-10.9-0.9-13.6,3.9l-31,56C19.388,751.698,21.188,757.798,25.988,760.498z"/>
			<path d="M135.588,740.098v22.5c0,5.5,4.5,10,10,10s10-4.5,10-10v-22.5l16.3,8.8c1.5,0.8,3.1,1.2,4.7,1.2c3.6,0,7-1.9,8.8-5.3
				c2.7-4.8,0.8-10.9-4-13.5l-14.7-7.9l14.7-7.9c4.9-2.6,6.7-8.7,4.1-13.5c-2.6-4.9-8.7-6.7-13.5-4.1l-16.3,8.8v-22.6
				c0-5.5-4.5-10-10-10s-10,4.5-10,10v22.5l-16.3-8.8c-4.9-2.6-10.9-0.8-13.5,4.1c-2.6,4.9-0.8,10.9,4.1,13.5l14.7,7.9l-14.8,8
				c-4.9,2.6-6.7,8.7-4.1,13.5c1.8,3.4,5.3,5.3,8.8,5.3c1.6,0,3.2-0.4,4.7-1.2L135.588,740.098z"/>
			<path d="M229.388,761.798c3.5,0,7-1.8,8.8-5.2l31-56c2.7-4.8,0.9-10.9-3.9-13.6c-4.8-2.7-10.9-0.9-13.6,3.9l-31,56
				c-2.7,4.8-0.9,10.9,3.9,13.6C226.088,761.398,227.788,761.798,229.388,761.798z"/>
			<path d="M384.888,744.798c2.6-4.9,0.7-10.9-4.1-13.5l-14.8-7.9l14.8-7.9c4.9-2.6,6.7-8.6,4.1-13.5c-2.6-4.9-8.6-6.7-13.5-4.1
				l-16.7,8.9v-22.7c0-5.5-4.5-10-10-10s-10,4.5-10,10v22.7l-16.7-8.9c-4.9-2.6-10.9-0.7-13.5,4.1c-2.6,4.9-0.7,10.9,4.1,13.5
				l14.8,7.9l-14.8,7.9c-4.9,2.6-6.7,8.6-4.1,13.5c1.8,3.4,5.3,5.3,8.8,5.3c1.6,0,3.2-0.4,4.7-1.2l16.7-8.9v22.7c0,5.5,4.5,10,10,10
				s10-4.5,10-10v-22.7l16.7,8.9c1.5,0.8,3.1,1.2,4.7,1.2C379.688,750.098,383.088,748.198,384.888,744.798z"/>
			<path d="M464.688,686.998c-4.8-2.7-10.9-0.9-13.6,3.9l-31,56c-2.7,4.8-0.9,10.9,3.9,13.6c1.5,0.9,3.2,1.3,4.8,1.3
				c3.6,0,7-1.8,8.8-5.2l31-56C471.288,695.798,469.488,689.698,464.688,686.998z"/>
		</g>
	</g>
</g>
</svg>